<?xml version="1.0" encoding="utf-8"?>
<!-- Generator: Adobe Illustrator 25.2.3, SVG Export Plug-In . SVG Version: 6.00 Build 0)  -->
<svg version="1.1" id="Layer_1" xmlns="http://www.w3.org/2000/svg" xmlns:xlink="http://www.w3.org/1999/xlink" x="0px" y="0px"
	 viewBox="0 0 800 800" style="enable-background:new 0 0 800 800;" xml:space="preserve">
<style type="text/css">
	.st0{fill:#4E724D;}
	.st1{fill:#FFFFFF;}
	.st2{fill:#5D845B;}
	.st3{fill:#141A14;}
</style>
<g>
	<path class="st0" d="M650,421.21c3.88-15.81-5.35-54.02-8.31-46.62c-2.94,7.36-41.77,50.04-74.1,61.31
		c-32.34,11.27-45.08,1.16-45.8-2.85c-0.71-3.98,0.48-12.43,18.91-17.09c18.39-4.68,72.33-33.52,81.58-43.38
		c9.18-9.88,10.55-25.25,8.72-51.06c-1.85-25.73-8.07-45.26-8.78-49.23c-0.71-3.98-32.62,25.04-44.43,43.6
		c-11.76,18.62-58.88,62.7-80.47,80.34c-21.56,17.6-60.13,32.68-65.2,19.37c-5.17-13.26,75.42-62.41,97.84-82.86
		c22.44-20.53,66.33-75.05,65-89.93c-1.29-14.89-10.66-21.43-22.12-31.81c-11.44-10.27-17.96-54.47-25.27-49.06
		c-7.23,5.47-33.44,128.26-49.83,144.14c-16.39,15.92-77.63,103.92-86.72,106.87c-9.07,3.02-24.86,22.32-21.41-4.39
		c3.51-26.76,137.21-216.79,137.67-252.62c0.53-35.77-4.04-22.65-18.62-35.17c-14.6-12.44-38.94-41.12-45.98-34.36
		c-7,6.76-2.49,93.87-3.18,128.34c-0.73,34.48-56.18,108.91-62.91,101.87c-6.72-7.01,0.45-20.67,11.92-33.48
		c11.43-12.8,25.57-110.58,24.56-124.16c-1.04-13.53-11.73-73.44-14.23-79.83c-2.55-6.42-21.05-10.04-36.64-12.69
		c-15.61-2.73-52.7-2.99-58.99-7.37c-6.29-4.39-13.86-8.47-36.13-10.01c-22.24-1.54-32.13-10.8-33.86-4.98
		c-1.7,5.81,8.14,30.12,14.66,59.2c6.59,29.07,27.18,121.55,12.18,122.83c-15,1.31-14.97-38.52-16.38-85
		c-1.44-46.44-31.65-85.01-43.37-96.67c-11.69-11.63-56.36-7.77-44.19-1.3c12.17,6.47,33.57,41.68,33.62,65
		c-0.01,23.37-11.91,33.77-20.82,29.85c-8.94-3.91-19.29-69.39-27.17-83.11c-7.95-13.7-80.5-19.99-80.5-19.99s9.74,54.64-8.98,73.03
		c-18.67,18.45-5.99,20.29-2.06,34.71c3.97,14.41,48.58,25.72,76.69,37.2c28.14,11.44,32.7,21.64,34.83,33.61
		c2.14,12-4.39,6.26-15.47,5.53c-11.16-0.78-15.37-1.4-35.19-4.74c-19.82-3.34-53.04-50.95-72.5-59.9
		c-19.47-8.84,1.19,6.7-3.04,29.41c-4.19,22.74,20.55,45.8,27.41,61.03c6.83,15.27,86.16,51.96,99.02,46.93
		c12.82-5.02,30.02-1.25,47.03,1.88c17.03,3.05,13.85,16.11,3.91,21.95c-9.9,5.83-44.83-12.56-63.8-18.79
		c-18.93-6.24-43.62-21.1-74.52-25.2c-30.97-4.09-25.34-57.3-32.23-57.4c-6.87-0.14-12.26,39.27-18.15,67.79
		c-5.9,28.52,16.82,47.87,40.19,71.14c23.38,23.3,174.81,25.14,178.69,31.36c3.83,6.16,9.47,14.76-15.39,14.01
		c-24.83-0.76-48.19,6.94-78.7,5.46c-30.49-1.37-65.68-6.11-78.12-6.66c-12.41-0.52-57.26-51.6-60.3-45.63
		c-3.07,5.98,7.03,31.76,12.6,55.5c5.63,23.73,29.79,59.27,39.48,67.16c9.66,7.93,52.02-1.03,109.48-9.87
		c57.49-8.92,51.57-3.72,52.29,0.29c0.71,3.98-11.29,6.12-19.66,13.12c-8.36,7-51,14.6-65.39,18.5c-14.38,3.93-53.48,8.2-82.86,5.16
		c-29.41-3-37.44,13.55-37.85,19.13c-0.34,5.57,20.18,12.85,45.03,29.05c24.92,16.19,33.99,13.16,33.99,13.16
		s38.56-6.87,54.33-11.09c15.72-4.13,44.55-12.05,62.23-20.71c17.68-8.66,36.65-2.43,36.65-2.43s4.12,7.58-26.08,30.79
		c-30.2,23.24-31.01,11.04-66.37,13.24c-35.29,2.15-27.07,2.05-36.8,9.26c-9.66,7.23,5.47,30.67,8.79,49.3
		c3.32,18.63,40.58,27.07,72.03,18.73c31.49-8.35,36.29-35.31,49.29-47.24c12.99-11.93,36.36-50.48,48.39-44.38
		c12.11,6.12-12.44,76.42-26.93,95.52c-14.46,19.03-52.08,54.58-50.9,61.24c1.18,6.63,22.03,0.21,40.67-3.11
		c18.67-3.33,18.79,13.1,35.94,8.71c17.03-4.44,42.76-68.11,44.36-82.14c1.64-14.01,4.55-51.61,15.84-57.73
		c11.25-6.18,24.26,43.77,27.49,61.88c3.23,18.11-22.68,49.87-24.29,63.88c-1.64,14.04,13.35,20.98,46.51,6.83
		c33.23-14.13,67.86-58.79,68.51-78.13c0.66-19.34-13.31-35.28-31.32-36.97c-17.99-1.76-41.17-22.9-45.72-33.11
		c-4.58-10.13-25.99-37.96-21.12-41.52c4.78-3.66,12.2-0.84,21.73,2.96c9.53,3.77,34.85,29.5,40.83,47.69
		c6.01,18.15,23.37,23.27,30.86,34.35c7.47,10.98,25.53-3.22,51.92-9.26c26.38-6.11,79-73.2,86.66-84.18
		c7.66-10.98-1.62-24.44-2.91-39.34C627.03,460.98,646.09,437.02,650,421.21z M151.18,165.29c-14.48-4.26-27.77-17.01-40.1-24.42
		c-12.27-7.42-6.65-22.14-5.23-29.31c0,0,18.67-3.33,27.44,7.53c8.76,10.75,28.75,22.31,37.88,42.64
		C180.25,182.14,165.71,169.61,151.18,165.29z M326.35,228.41c4.47-10.84,22.63-32.4,22.35-44.27c-0.31-11.86-7.95-18.74-4.27-23.97
		c3.64-5.26,16.52,41.19,16.83,53.41c0.38,12.21,4.3,44.49-1.12,50.03c-5.42,5.54-18.37,9.86-18.37,9.86
		S321.88,239.29,326.35,228.41z M330.24,445.24c-10.31,11.45-25.2,12.74-42.54,15.83c-17.31,3.09-19.75-18.48-21.41-27.83
		c0,0,21.53-2.43,30.6-5.46c9.09-2.95,23.1-1.31,41.5-1.89C356.76,425.39,340.54,433.79,330.24,445.24z M391.14,501.71
		c-3.3,4.69-17.45-46.36-28.48-72.32c-7.94-18.71-30.55-50.79-47.29-67.57c-16.75-16.81-47.85-75.75-54.48-89.69
		c-6.51-13.67-43.15-55.24-54.2-67.92c5.76,6.03,52.86,55.77,61.34,74.46c9.02,19.92,30.42,55.13,46.12,73.72
		c15.67,18.63,31.19,38.86,39.35,53.9C361.68,421.31,394.4,496.99,391.14,501.71z M328.35,347.22c1.26-2.6,11.35-23.95,19.37-36.97
		c8.54-13.87,35.3-42.69,39.97-68.62c4.05-22.5,5.57-37.61,5.91-41.16c-0.14,4.88-1.08,31.48-3.03,39.93
		c-2.11,9.38-15.73,35.13-23.57,45.07C359.18,295.43,333.99,338.05,328.35,347.22z M557.98,484.78l-44.38,7.91
		c-13.29,2.37-30.39-16.58-22.28-17.12c16.34-1.04,18.56,1.3,32.94,2.62C538.68,479.51,568.65,482.87,557.98,484.78z"/>
</g>
<path class="st1" d="M764.82,399.3c-38.76,141.71-178.99,180.63-284.69,131.29s-147.05-150.75-84.91-283.88
	c28.7-61.48,75.94-70.68,127.62-91.53c60.23-24.3,128.04-86.12,155.49-29.65C716.95,205.01,797.63,279.35,764.82,399.3z"/>
<g>
	<path class="st2" d="M413.48,439.57c1.4,8.2-1.95,16.75,3.98,21.59c5.92,4.84,45.45,33.6,61.33,33.19
		c15.87-0.44,28.18,4.67,30.85-2.28c2.67-7.02,11.81-12.2,12.63-22.82c0.8-10.63,11.52-28.03,16.39-31.4
		c4.88-3.39,8.69-5.94,11.93-4.64c3.28,1.24-4.91,19.22-6.07,25.32c-1.13,6.13-11.28,20.76-21.26,24.23
		c-10,3.43-15.66,13.97-12.52,24.29c3.14,10.32,29.22,29.52,50.14,32.48c20.88,2.98,28.41-2.86,25.47-10.19
		c-2.92-7.32-22.2-20.79-22.95-30.99c-0.76-10.2-0.51-38.92,6.77-37.17c7.3,1.71,14.33,21.55,17.27,28.87
		c2.92,7.33,26.66,38.01,36.98,38.02c10.38-0.04,8.1-8.9,19.19-9.72c11.07-0.82,23.85-0.28,23.57-4.02
		c-0.28-3.75-26.76-17.63-37.71-25.85c-10.97-8.26-34.99-42.67-28.98-47.67c5.97-4.97,24.78,12.52,33.87,17.12
		c9.1,4.6,15.69,18.45,34.79,18.53c19.08,0.09,39.06-9.67,38.28-20.17c-0.78-10.5,4.47-25.24-2.06-27.78
		c-6.57-2.52-1.87-3.62-22.25,0.17c-20.42,3.77-19.13,10.45-39.64,2.16c-20.5-8.27-19.24-12.93-19.24-12.93s9.89-6.01,21.19-3.82
		c11.29,2.19,28.82,2.41,38.35,2.44c9.57,0.06,32.48-1.63,32.48-1.63s5.59,0.36,17.45-11.85c11.81-12.2,22.44-19,21.45-21.95
		c-1.03-2.95-7.97-10.74-24.26-5c-16.27,5.75-39.11,8.93-47.86,8.82c-8.74-0.08-34.08,1.79-39.83-0.81
		c-5.76-2.6-12.89-2.07-13.06-4.31c-0.17-2.26-4.27-4.23,29.69-7.48c33.95-3.28,59.32-4.39,63.67-10.01
		c4.38-5.6,13.03-28.12,12.84-41.69c-0.23-13.56,1.82-28.86-0.78-31.65c-2.58-2.79-20.78,30.99-27.76,33.01
		c-7,2.04-26.33,9.52-43.47,14.53c-17.14,5.06-31.52,4.19-45.54,8.08c-14.03,3.89-12.06-1.54-10.76-5.39
		c1.32-3.89,87.17-26.08,97.13-41.9c9.96-15.8,20.11-29.4,12.67-43.93c-7.43-14.53-16.14-35-20.03-33.96
		c-3.91,1.02,6.91,28.88-10.11,35.42c-16.99,6.54-28.89,17.99-38.77,24c-9.89,6.01-27.12,20.81-33.59,19.05
		c-6.49-1.75-10.17-8.34-0.92-12.37c9.23-4.06,18.47-8.5,26.48-7.59c8.03,0.91,47.9-29.96,49.59-39.13
		c1.72-9.16,12.49-25.04,6.85-36.7c-5.66-11.64,3.87-22.9-5.94-15.41c-9.78,7.54-21.86,37.83-32.65,42.41
		c-10.79,4.57-13.1,5.5-19.33,7.48c-6.19,1.94-9.09,5.95-9.59-0.81c-0.5-6.74,0.63-12.88,15-22.97
		c14.34-10.12,38.09-22.45,38.29-30.77c0.18-8.32,7.12-11.08-6.14-18.4c-13.28-7.28-15.56-38.07-15.56-38.07
		s-40.36,13.54-42.92,22.04c-2.52,8.49,0.97,45.19-3.55,48.55c-4.5,3.36-12.76-0.58-16.11-13.16c-3.31-12.56,3.82-34.52,9.82-39.71
		c5.99-5.19-19.96-1.01-24.94,6.89c-5,7.92-16.66,32.92-10.83,58.13c5.85,25.22,11.57,46.66,2.85,48.06
		c-8.71,1.42-10.24-51.27-10.65-67.84c-0.46-16.57,1.66-31.04-0.14-33.93c-1.82-2.89-6.12,3.48-18.55,7.42
		c-12.44,3.95-16.16,7.21-19.11,10.45c-2.95,3.24-24.01,8.58-32.49,12.23c-8.49,3.61-18.49,8.15-19.02,11.96
		c-0.51,3.79,1.99,37.55,3.33,44.98c1.36,7.45,23.4,58.12,31.73,63.41c8.36,5.29,14.39,11.64,11.57,16.36
		c-2.82,4.74-45.01-27.58-50.36-46.04c-5.33-18.46-15.23-66-20.18-68.66c-4.97-2.66-14.71,16.19-21.23,24.94
		c-6.5,8.78-10.98,2.35-5.55,21.54c5.38,19.23,108.62,102.83,114.44,116.75c5.78,13.9-5.96,5.72-11.55,5.36
		c-5.59-0.32-53.01-39.13-64.61-45.4c-11.6-6.26-44.07-68.71-48.97-70.64c-4.93-1.89-2.31,22.82-7.35,29.96
		c-5.03,7.19-9.43,12.02-8.03,20.22c1.38,8.2,34.14,31.41,49.84,39.32c15.68,7.87,68.54,23.05,67.5,30.92
		c-0.98,7.88-25.07,5.16-39.85-1.3c-14.8-6.47-47.9-23.61-57.26-31.99c-9.37-8.34-31.67-19.5-31.51-17.26s-0.58,13.62,2.05,27.74
		c2.65,14.15,5.63,22.24,12.26,26.27c6.68,4.01,41.48,11.99,52.6,11.94c11.15-0.07,13.04,4.31,13.2,6.55
		c0.17,2.26-5.63,9.49-25.64,7.95c-20-1.54-48.19-19.08-50.92-22.64c-2.75-3.57-2.52,18.29,1.95,26.26
		C397.79,421.15,412.06,431.38,413.48,439.57z M628.46,206.41c2.28-12.23,12-21.25,15.44-28.26c3.44-7.07,14.53-7.9,14.53-7.9
		c1.83,3.66,7.14,10.8,1.22,16.51c-5.96,5.72-11.69,14.45-19.31,18.77C632.7,209.89,626.22,218.68,628.46,206.41z M547.44,290.47
		c0,0-7.98-0.52-11.86-2.74c-3.88-2.22-6.27-20.15-7.8-26.78c-1.57-6.62-0.89-33.44,1.93-31.12c2.84,2.3-0.52,7.08,1,13.51
		c1.54,6.43,14.95,15.5,19.04,20.71C553.86,269.28,547.44,290.47,547.44,290.47z M571.18,372.07c10.55-2.26,18.28-5.11,23.87-4.79
		c5.59,0.36,18.18-1.35,18.18-1.35c0.39,5.27,2.09,17.22-8.2,17.98c-10.3,0.76-18.96,2.16-26.46-2.57
		C571.08,376.63,560.66,374.37,571.18,372.07z M559.78,363.63c2.48-9.24,8.42-22.31,14.66-34.53c6.27-12.21,13.4-34.16,15.68-46.15
		c2.15-11.25,21.81-44.63,24.22-48.68c-4.47,8.38-19.36,35.89-21.1,44.16c-1.77,8.43-11.02,44.52-18.14,55.92
		c-7.12,11.38-15.38,31.82-17.22,43c-2.56,15.53-3.3,45-5.85,42.93C549.5,418.19,557.28,372.86,559.78,363.63z M534.82,300.46
		c-5.88-4.25-17.32-16.21-19.86-20.97c-2.32-4.28-6.66-18.46-7.44-21.07c0.7,1.87,3.73,9.79,9.25,21.34
		c6.36,13.31,25.71,25.08,32.55,31.35c6.42,5.89,15.21,15.97,16.3,17.2C561.11,324.15,540.68,304.73,534.82,300.46z M472.97,426.25
		c7.99-2.73,8.92-4.3,18.36-6.02c4.69-0.84-2.32,11.76-10.22,12.34l-26.37,1.95C448.39,434.99,464.95,428.98,472.97,426.25z"/>
</g>
<path class="st3" d="M64.06,588.61c0,0-12.07,5.08-21.4,0s-15.91-13.86-10.97-21.9c4.94-8.03,17.56-19.76,24.69-24.91
	s77.37-68.46,93.83-74.92s56.52-23.97,65.84-22.84s16.93,2.26,17.52,7.34c0.59,5.08-4.9,24.85-6,24.28
	c-1.1-0.56,45.54-4.8,53.22-3.39c7.68,1.41,18.11,4.24,19.48,3.95s13.44-1.69,19.48-1.69s9.6,0,9.6,0s16.19-6.21,19.48-5.93
	c3.29,0.28,15.09-2.82,21.95-5.93c6.86-3.11,11.25-4.8,11.25-4.8s5.21-11.58,10.7-12.71c5.49-1.13,12.89-2.82,17.56,0
	s20.03,26.82,20.03,26.82s10.15,7.06,15.36,8.75c5.21,1.69,9.05,5.08,9.05,5.08s4.12,0.56,7.41,2.54c3.29,1.98,5.49,7.34,5.49,8.75
	c0,1.41,0,4.24,0,4.24s4.94,9.32,5.49,12.42c0.55,3.11-1.65,14.68-3.02,18.64s-7.96,12.42-9.88,14.4c-1.92,1.98-8.23,7.06-9.6,8.19
	c-1.37,1.13-30.45,15.81-34.71,17.51c-4.25,1.69-8.92,3.25-11.11,5.36c-2.19,2.12-16.32,11.01-22.22,12.99
	c-5.9,1.98-12.07,6.35-12.07,6.35s6.72,2.12,11.66,2.96c4.94,0.85,9.47,3.39,11.11,6.07c1.65,2.68,4.8,8.89,6.86,9.74
	c2.06,0.85,3.29,2.4,7.54,1.98c4.25-0.42,5.08-2.68,7.96-2.26c2.88,0.42,5.76,1.98,6.17,3.25s6.17,4.8,7.82,6.21
	c1.65,1.41,3.7,4.52,3.02,6.78c-0.69,2.26-4.66,4.09-8.37,3.95c-3.7-0.14-6.86-4.24-7.41-4.94s-4.12-4.38-6.04-4.09
	c-1.92,0.28-5.08,2.68-5.9,3.53c-0.82,0.85-4.12,2.96-7.13,2.82c-3.02-0.14-5.08-2.82-5.08-2.82s5.35,10.73,5.9,11.72
	c0.55,0.99,11.93,15.53,12.48,15.95c0.55,0.42,2.61,0.56,3.7,1.98c1.1,1.41,2.33,4.52,2.19,6.07s0.41,3.39,0.41,3.39
	s2.61,2.82,3.84,4.09c1.23,1.27,5.62,6.07,5.62,8.75c0,2.68-2.19,7.48-5.49,8.19c-3.29,0.71-9.74,0.99-12.07-3.67
	c-2.33-4.66-2.88-13.55-2.88-15.39c0-1.84-2.88-4.8-4.39-5.93s-11.52-12.42-13.85-15.53c-2.33-3.11-11.11-19.48-16.6-19.62
	c-5.49-0.14-9.74-1.55-13.72,1.55c-3.98,3.11-8.23,6.92-8.23,7.91c0,0.99,0,3.53-0.27,5.93s-0.82,5.36-1.37,6.07
	c-0.55,0.71-1.23,1.27-0.55,2.26s1.92,2.4,1.37,4.09s2.06,4.66-7.68,5.08c-9.74,0.42-12.48-2.12-12.48-5.36
	c0-3.25,1.92-5.36,3.43-6.21c1.51-0.85,2.74-1.55,2.74-1.55s0-4.66,1.37-6.78c1.37-2.12,2.88-4.66,2.61-5.93s-2.47-11.29-3.29-12.99
	s-1.65-4.52-4.25-4.24c-2.61,0.28-7,6.49-9.33,8.05c-2.33,1.55-21.67,16.8-32.51,20.61s-13.99,5.65-14.4,9.32
	c-0.41,3.67,10.56,19.2,11.8,22.87c1.23,3.67,13.17,23.72,14.4,26.26c1.23,2.54,5.08,12.71,10.15,12.28
	c5.08-0.42,12.21-5.08,13.72-6.78s8.5-14.12,10.29-15.67c1.78-1.55,2.74-6.49,3.7-7.91c0.96-1.41,6.58-3.81,8.78-3.11
	c2.19,0.71,8.09,2.26,9.33,5.22s2.19,8.05,0,9.32c-2.19,1.27-16.05,7.62-18.66,12.85c-2.61,5.22-6.86,11.72-7,13.27
	s19.62,3.39,23.73,3.67c4.12,0.28,14.27,0,17.83-1.69c3.57-1.69,12.07-5.22,17.83-5.93c5.76-0.71,9.6-0.28,10.29-0.28
	s2.33-2.26,5.76-2.26s9.6,2.12,12.35,5.93c2.74,3.81,2.33,5.65,1.78,7.48s-5.49,4.52-8.37,4.66c-2.88,0.14-8.23-4.94-11.39-4.8
	s-13.58,2.83-16.46,4.8c-2.88,1.97-10.29,4.66-18.38,5.22c-8.09,0.56-14.54,0.85-17.42,3.25c-2.88,2.4-0.27,8.19-0.27,8.19
	s4.39,2.12,5.35,2.82c0.96,0.71,0.69,1.69,3.02,1.55c2.33-0.14,5.21-2.68,7.13-2.54s4.8,1.41,6.31,1.84
	c1.51,0.42,6.31-1.69,9.19-1.69s5.21,0.28,8.23,1.84c3.02,1.55,3.16,2.54,1.65,5.36s-7.27,6.35-12.62,6.35s-9.33-1.69-11.93-1.55
	c-2.61,0.14-2.74,4.94-9.88,4.94c-7.13,0-11.66-1.69-13.03-3.53s-4.94-6.35-10.7-6.21s-14.81-3.25-17.28-4.8
	c-2.47-1.55-21.54-5.93-23.87-5.79c-2.33,0.14-0.96,5.51-1.65,6.64c-0.69,1.13-4.94,5.93-8.23,7.48c-3.29,1.55-9.6-0.85-16.19-3.25
	c-6.58-2.4-16.19-6.21-20.58-5.93c-4.39,0.28-6.72,0.56-7.41,1.27c-0.69,0.71,2.19,1.69,2.74,3.25c0.55,1.55-0.27,10.02-4.12,12
	c-3.84,1.98-9.33,3.39-13.44-0.99c-4.12-4.38-6.45-9.04-10.56-9.46c-4.12-0.42-7.54-1.27-8.78-2.26
	c-1.23-0.99-22.36-15.39-28.4-16.38s-68.31-28.66-75.31-33.32c-7-4.66-31.96-20.75-35.8-24.14c-3.84-3.39-25.38-28.24-26.75-31.34
	s-6.31-14.82-3.29-21.32c3.02-6.49,5.35-11.01,11.25-11.29c5.9-0.28,20.99,0.14,22.91,1.84c1.92,1.69-1.65-4.09-1.65-8.61
	c0-4.52-1.78-3.4-3.02-10.24C60.9,600.75,64.06,588.61,64.06,588.61z"/>
</svg>
